<?xml version="1.0" standalone="no"?>
<!DOCTYPE svg PUBLIC "-//W3C//DTD SVG 20010904//EN"
 "http://www.w3.org/TR/2001/REC-SVG-20010904/DTD/svg10.dtd">
<svg version="1.0" xmlns="http://www.w3.org/2000/svg"
 width="250.000000pt" height="250.000000pt" viewBox="0 0 250.000000 250.000000"
 preserveAspectRatio="xMidYMid meet">

<g transform="translate(0.000000,250.000000) scale(0.100000,-0.100000)"
fill="#000000" stroke="none">
<path d="M1859 2017 c-93 -39 -154 -81 -184 -125 -22 -32 -152 -122 -184 -127
-11 -2 -15 -12 -14 -29 2 -24 0 -26 -14 -14 -32 26 -317 17 -375 -13 -11 -6
-18 -4 -22 6 -3 8 -12 15 -20 15 -7 0 -17 8 -21 18 -7 16 -8 15 -15 -3 -4 -11
-12 -20 -18 -20 -6 0 -21 -10 -34 -23 -12 -13 -50 -41 -84 -61 -72 -46 -99
-87 -120 -185 -8 -39 -30 -101 -49 -138 -19 -37 -35 -74 -35 -82 0 -19 24 -27
63 -19 45 8 67 20 111 62 l38 36 -7 -45 c-4 -25 -12 -54 -17 -64 -16 -29 -3
-174 16 -195 9 -10 16 -26 16 -35 0 -17 -2 -17 -24 -2 -24 15 -25 14 -36 -17
-7 -18 -14 -27 -17 -20 -2 6 3 23 12 37 16 23 13 66 -3 66 -4 0 -29 -25 -55
-55 -43 -49 -49 -61 -49 -103 -1 -39 -7 -54 -34 -84 -18 -20 -39 -49 -47 -65
-39 -77 -71 -254 -83 -461 -6 -111 -14 -143 -27 -109 -8 17 -27 -12 -20 -30 3
-7 0 -13 -6 -13 -6 0 -11 -9 -11 -19 0 -31 -18 -34 -22 -4 l-3 28 -23 -35
c-21 -33 -22 -34 -23 -10 0 23 -1 23 -9 5 -10 -26 -38 -50 -47 -41 -4 3 2 12
12 20 10 7 15 18 11 25 -6 9 -12 7 -23 -6 -14 -17 -14 -17 -9 0 4 13 1 17 -12
15 -23 -4 -43 -33 -36 -52 9 -22 -3 -35 -27 -29 -18 5 -19 7 -6 14 12 7 13 14
4 33 l-12 25 -22 -21 c-12 -12 -20 -24 -18 -29 3 -4 -5 -15 -17 -23 -21 -15
-1 -16 245 -16 250 0 268 1 265 18 -2 10 2 16 11 14 8 -2 11 3 8 11 -4 10 2
14 16 13 12 -1 28 2 35 7 6 5 12 8 13 6 7 -33 6 -37 -7 -32 -16 6 -69 -25 -59
-35 3 -4 11 0 16 8 8 11 12 12 16 3 4 -10 88 -13 376 -13 l372 0 12 37 c10 32
10 40 -2 49 -8 6 -15 17 -15 25 0 8 -13 23 -27 33 -22 17 -26 17 -20 3 3 -9 0
-23 -8 -31 -8 -8 -15 -22 -15 -30 0 -9 -5 -16 -11 -16 -5 0 -7 -4 -4 -10 3 -5
-3 -10 -13 -10 -11 0 -34 -3 -51 -6 l-31 -7 1 49 c0 40 2 45 9 27 10 -25 30
-31 30 -10 0 8 4 7 10 -3 5 -8 10 -10 10 -4 0 5 -6 16 -12 23 -8 9 -8 11 -2 8
8 -5 11 2 10 18 -1 23 -2 24 -13 8 -12 -16 -13 -15 -14 3 -1 10 0 27 1 38 1
11 -3 15 -9 12 -11 -7 -15 15 -13 64 3 42 -23 113 -44 120 -10 4 -30 3 -43 -1
-20 -8 -23 -15 -19 -49 2 -25 0 -39 -7 -37 -14 5 -18 63 -7 84 6 9 25 23 44
29 29 11 30 13 9 13 -34 1 -21 11 24 16 20 3 41 7 45 10 5 3 11 -1 13 -7 4
-10 6 -9 6 1 1 10 4 11 15 2 11 -9 15 -6 20 14 7 26 31 34 38 13 7 -19 28 1
28 25 0 13 7 33 16 46 12 17 15 35 10 71 -6 41 -4 49 11 54 10 3 24 15 31 26
11 19 11 20 -12 14 -14 -3 -32 -2 -41 3 -14 8 -6 17 44 49 61 39 82 63 37 43
-19 -9 -30 -7 -65 15 -22 15 -41 33 -41 41 0 18 76 59 96 51 8 -3 14 1 14 9 0
9 -6 12 -17 9 -16 -5 -16 -4 -3 8 8 7 22 27 30 43 8 17 23 41 33 55 26 38 31
77 10 89 -14 8 -15 10 -3 11 13 0 13 1 0 10 -13 8 -13 10 1 10 13 0 15 12 14
68 -1 79 22 153 59 187 14 13 26 29 26 34 0 6 18 16 41 22 23 7 43 20 46 28 3
9 13 32 24 52 10 20 19 43 19 52 0 8 7 20 16 28 9 7 34 49 56 93 22 45 53 99
69 121 38 55 65 150 50 181 -15 35 -76 31 -172 -9z m-352 -396 c3 -10 16 -21
29 -24 26 -5 31 2 12 21 -8 8 -8 12 -1 12 12 0 26 -26 27 -53 1 -10 6 -21 12
-25 31 -20 55 -104 34 -117 -5 -3 -10 -1 -10 5 0 6 -6 10 -14 8 -8 -2 -42 16
-75 40 -58 40 -75 62 -50 62 6 0 1 9 -12 19 -19 16 -22 22 -11 32 10 11 18 6
43 -21 17 -19 27 -28 22 -20 -4 8 -9 24 -10 34 -2 10 -11 25 -21 32 -16 13
-16 13 1 14 11 0 21 -9 24 -19z m-503 -43 c-5 -8 -2 -9 10 -5 14 5 17 3 13 -8
-4 -8 -2 -17 4 -20 5 -4 12 1 15 9 3 9 15 16 25 16 10 0 19 5 19 12 0 6 3 8 7
4 4 -4 -6 -18 -21 -31 -16 -14 -24 -25 -17 -25 15 0 0 -16 -47 -49 -17 -12
-36 -30 -41 -39 -10 -19 -25 -131 -23 -174 1 -16 -3 -28 -8 -28 -8 0 -6 122 4
222 4 40 44 128 58 128 5 0 6 -5 2 -12z m626 -208 c0 -11 -7 -20 -15 -20 -16
0 -16 20 0 32 14 11 15 10 15 -12z m-694 -257 c25 -37 43 -76 40 -85 -2 -10 1
-16 6 -15 13 3 18 -26 8 -42 -5 -8 -19 4 -43 37 -55 77 -79 131 -72 159 7 30
6 32 61 -54z m-26 -91 c0 -8 8 -21 18 -28 9 -7 12 -14 6 -14 -19 0 -41 25 -53
59 -11 34 -11 34 9 16 11 -10 20 -25 20 -33z m5 -72 c3 -5 1 -10 -4 -10 -6 0
-11 5 -11 10 0 6 2 10 4 10 3 0 8 -4 11 -10z m-168 -91 l-14 -34 4 50 c6 66
16 89 21 49 1 -17 -3 -47 -11 -65z m94 54 c8 -43 4 -63 -11 -57 -20 8 -31 8
-54 -2 -16 -6 -15 -1 8 29 26 34 54 48 57 30z m84 -176 c7 -9 17 -17 24 -17 6
0 16 -11 22 -24 8 -16 17 -22 27 -19 10 4 13 2 8 -5 -4 -7 -2 -12 5 -12 7 0 9
-10 7 -25 -4 -17 -1 -25 8 -25 19 0 17 -20 -5 -53 -18 -29 -62 -57 -87 -57 -7
0 -16 -4 -19 -10 -3 -6 1 -7 9 -4 9 3 16 1 16 -5 0 -6 10 -9 22 -7 20 3 48
-14 48 -28 0 -3 -14 -6 -31 -6 -21 0 -28 4 -23 13 5 8 2 8 -9 -2 -9 -7 -17
-10 -17 -5 0 4 -6 0 -13 -11 -8 -10 -19 -15 -25 -11 -7 4 -12 4 -12 1 0 -3 15
-12 33 -20 17 -8 27 -14 20 -15 -7 0 -18 -10 -24 -22 -9 -19 -9 -21 2 -10 21
20 34 14 15 -7 -17 -19 -17 -19 6 -14 21 6 22 5 9 -10 -7 -10 -20 -16 -29 -15
-8 2 -16 -4 -17 -14 -3 -14 2 -13 32 5 44 25 120 25 139 -1 7 -10 9 -21 4 -27
-5 -6 -7 -20 -4 -32 5 -17 0 -22 -28 -28 -29 -7 -30 -9 -13 -16 18 -7 18 -8
-5 -8 -59 -1 -64 -3 -46 -17 11 -8 13 -14 7 -19 -6 -3 -11 -3 -11 2 0 4 -11
13 -25 19 -18 9 -30 9 -52 -2 l-28 -14 24 20 c29 25 24 25 -35 0 -51 -22 -64
-21 -40 3 13 13 14 16 1 21 -8 3 -19 -3 -25 -12 -8 -15 -11 -15 -20 -2 -5 8
-10 12 -10 8 0 -12 -40 30 -40 42 0 6 -5 10 -10 10 -6 0 -9 4 -8 9 2 5 -1 9
-6 9 -5 0 -13 7 -18 16 -5 9 -15 16 -22 16 -31 0 -34 63 -6 142 10 30 22 71
25 89 12 70 27 111 48 132 12 12 23 31 24 42 2 11 14 28 26 38 29 23 133 19
152 -6z m540 -137 c3 -5 1 -10 -4 -10 -6 0 -11 5 -11 10 0 6 2 10 4 10 3 0 8
-4 11 -10z m-314 -14 c5 3 13 -6 18 -19 6 -14 23 -29 40 -35 17 -6 31 -16 31
-22 0 -6 3 -9 8 -7 4 3 7 -8 8 -23 1 -16 -5 -31 -12 -34 -9 -3 -14 2 -14 13 0
17 -18 40 -74 90 -14 13 -26 31 -25 40 0 10 2 11 6 3 2 -6 9 -10 14 -6z m-82
-253 c2 -2 -16 -3 -40 -3 -43 1 -43 1 -19 15 19 10 29 11 40 2 8 -6 17 -13 19
-14z m-135 -175 c-5 -8 -2 -9 12 -4 10 4 15 3 10 -1 -4 -4 -17 -8 -29 -9 -12
0 -37 -4 -56 -8 -24 -6 -31 -5 -27 3 4 6 2 11 -5 11 -7 0 -9 3 -6 6 4 4 13 2
20 -4 10 -9 18 -8 33 3 23 18 58 20 48 3z m71 -17 c-3 -5 4 -13 16 -16 11 -4
18 -9 16 -12 -8 -7 -47 16 -47 27 0 6 5 10 11 10 5 0 8 -4 4 -9z m-458 -43
c-3 -7 -5 -2 -5 12 0 14 2 19 5 13 2 -7 2 -19 0 -25z m383 -18 c0 -5 -5 -10
-11 -10 -5 0 -7 5 -4 10 3 6 8 10 11 10 2 0 4 -4 4 -10z"/>
<path d="M910 675 c-7 -9 -20 -13 -27 -11 -11 5 -13 0 -7 -17 9 -31 14 -34 24
-17 8 13 10 13 10 -1 0 -9 7 -16 15 -16 8 0 15 4 15 9 0 4 -4 8 -9 8 -6 0 -9
9 -8 20 1 11 5 20 10 20 5 0 7 -6 4 -14 -4 -10 0 -14 14 -13 23 2 23 2 2 27
-21 24 -27 25 -43 5z"/>
<path d="M1006 592 c-3 -5 1 -9 9 -9 8 0 12 4 9 9 -3 4 -7 8 -9 8 -2 0 -6 -4
-9 -8z"/>
<path d="M960 299 c-12 -8 -11 -9 5 -7 12 2 19 -2 18 -9 -2 -7 2 -13 7 -13 6
0 10 5 10 11 0 5 4 8 9 5 5 -3 11 1 15 9 4 11 -2 15 -22 15 -15 0 -34 -5 -42
-11z"/>
<path d="M903 237 c-19 -21 -20 -23 -3 -24 12 -1 20 7 23 23 2 13 4 24 3 24 0
0 -11 -11 -23 -23z"/>
<path d="M945 250 c7 -11 45 -20 45 -10 0 4 -11 10 -25 12 -13 3 -22 2 -20 -2z"/>
<path d="M952 217 c-9 -10 -4 -13 19 -15 16 -1 29 3 29 9 0 6 -9 8 -21 4 -15
-5 -19 -4 -15 4 10 15 1 14 -12 -2z"/>
<path d="M476 515 c-16 -19 -17 -19 -11 -1 5 16 3 17 -10 6 -14 -12 -12 -16
20 -31 34 -17 40 -17 66 -3 30 15 41 38 14 28 -11 -5 -13 -2 -9 10 9 23 -48
16 -70 -9z"/>
<path d="M545 470 c3 -5 8 -10 11 -10 2 0 4 5 4 10 0 6 -5 10 -11 10 -5 0 -7
-4 -4 -10z"/>
</g>
</svg>
